<?xml version="1.0" encoding="UTF-8"?>
<svg id="Camada_1" data-name="Camada 1" xmlns="http://www.w3.org/2000/svg" viewBox="0 0 466.54 120.25">
  <g id="P1">
    <g>
      <g id="BRK">
        <g>
          <g>
            <path d="M0,120.25v-21.69h39.8v4.74H4.78v3.71h35.01v4.74H4.78v8.5H0Z"/>
            <path d="M77.48,120.25v-21.69h4.78v21.69h-4.78Z"/>
            <path d="M281.75,120.25v-21.69h4.78v21.69h-4.78Z"/>
            <path d="M155.9,115.51c.45,0,.84-.13,1.18-.4.34-.27.51-.7.51-1.3v-.4c0-.63-.14-1.06-.42-1.3-.28-.24-.69-.36-1.23-.36h-28.89c-1.19,0-2.24-.41-3.13-1.23-.89-.82-1.34-1.99-1.34-3.51v-3.71c0-1.52.45-2.69,1.34-3.51.89-.82,1.94-1.23,3.13-1.23h35.33v4.74h-33.36c-.54,0-.95.11-1.23.34-.28.22-.42.65-.42,1.27v.4c0,.6.17,1.03.51,1.3.34.27.74.4,1.18.4h28.84c1.19,0,2.24.43,3.13,1.3.89.87,1.34,2.03,1.34,3.49v3.71c0,1.52-.45,2.69-1.34,3.51-.89.82-1.94,1.23-3.13,1.23h-35.33v-4.74h33.31Z"/>
            <path d="M205.54,107.02h30.23v-8.45h4.78v21.69h-4.78v-8.5h-30.23v8.5h-4.78v-21.69h4.78v8.45Z"/>
            <path d="M332.91,98.56l30.18,16.46v-16.46h4.78v21.69h-4.83l-30.18-16.46v16.46h-4.78v-21.69h4.83Z"/>
            <path d="M404.94,103.86c.25-.37.68-.56,1.27-.56h33.36v-4.74h-35.28c-.6,0-1.16.1-1.7.31-.54.21-1.01.51-1.43.92-.42.4-.75.9-1.01,1.5-.25.6-.38,1.27-.38,2.01v12.21c0,.78.13,1.45.38,2.03.25.58.59,1.07,1.01,1.48.42.4.89.71,1.43.92.54.21,1.1.31,1.7.31h30.77c.57,0,1.12-.1,1.68-.31.55-.21,1.04-.51,1.45-.92.42-.4.75-.89,1.01-1.48.25-.58.38-1.26.38-2.03v-8.59h-18.82v4.74h14.03v1.47s0,0,0,0v.36c0,.6-.17,1.08-.51,1.45-.34.37-.74.56-1.18.56h-26.96c-.45,0-.82-.19-1.12-.56-.3-.37-.45-.86-.45-1.45v-8.18c0-.6.13-1.08.38-1.45Z"/>
          </g>
          <g>
            <polygon points="439.57 .07 424.38 .07 416 20.97 431.19 20.97 439.57 .07"/>
            <polygon points="428.57 29.34 413.38 29.34 410.33 36.81 323.79 36.81 323.79 29.34 308.59 29.34 308.59 78.99 323.79 78.99 323.79 51.66 411 51.66 422.28 78.99 437.48 78.99 422.81 43.45 428.57 29.34"/>
            <path d="M15.19,15.23h91.3c5.51,0,6.9,2.62,7.2,4.48v1.8h15.19v-7.84c0-4.7-.52-13.59-15.19-13.59H0v21.43h15.19v-6.27Z"/>
            <rect x="308.59" y=".07" width="15.19" height="21.43"/>
            <path d="M128.89,36.65v-7.32h-15.19v1.2c-.17,2.08-1.31,6.12-7.68,6.12H15.19v-7.32H0v49.65h116.31s12.57-1.57,12.57-15.16v-12.02s.24-4.09-2.86-8.02c2.58-3.64,2.86-7.13,2.86-7.13ZM15.19,51.81h91.87c1.64.05,6.63.63,6.63,5.82,0,6.2-4.55,6.2-7.25,6.2H15.19v-12.02Z"/>
            <path d="M259.63,36.65h-89.88v-7.32h-15.19v49.65h15.19v-27.18h86.95l11.54,27.18h15.19l-11.67-27.47c3.56-.81,11.05-3.82,11.63-14.86h.04v-7.32h-15.19s.06,7.32-8.62,7.32Z"/>
            <path d="M270.34.24V.07h-115.79v21.43h15.19v-6.27h91.16c2.62,0,7.33.52,7.33,6.27h15.19v-3.66c0-4.87-1.53-16.08-13.1-17.6Z"/>
          </g>
        </g>
      </g>
      <path d="M449.59,8.48c0-4.72,3.8-8.48,8.48-8.48s8.48,3.76,8.48,8.48-3.76,8.48-8.48,8.48-8.48-3.8-8.48-8.48ZM450.98,8.48c0,3.88,3.16,7.08,7.08,7.08s7.08-3.2,7.08-7.08-3.16-7.08-7.08-7.08-7.08,3.12-7.08,7.08ZM457.82,9.52h-1.56v3.84h-1.48V3.64h3.96c1.88,0,3.28,1.16,3.28,2.96,0,2.16-1.92,2.88-2.48,2.88l2.6,3.88h-1.8l-2.52-3.84ZM456.26,4.88v3.36h2.48c1.08,0,1.76-.64,1.76-1.64,0-1.08-.68-1.72-1.76-1.72h-2.48Z"/>
    </g>
  </g>
</svg>