<?xml version="1.0" encoding="UTF-8"?>
<svg id="Camada_1" data-name="Camada 1" xmlns="http://www.w3.org/2000/svg" viewBox="0 0 466.54 120.25">
  <g id="P1">
    <g id="BRK">
      <g>
        <polygon points="455.4 18.96 440.21 18.96 431.83 39.86 447.02 39.86 455.4 18.96"/>
        <polygon points="444.4 48.23 429.21 48.23 426.16 55.7 339.62 55.7 339.62 48.23 324.42 48.23 324.42 97.88 339.62 97.88 339.62 70.55 426.83 70.55 438.11 97.88 453.31 97.88 438.64 62.34 444.4 48.23"/>
        <path d="M31.02,34.12h91.3c5.51,0,6.9,2.62,7.2,4.48v1.8h15.19v-7.84c0-4.7-.52-13.59-15.19-13.59H15.83v21.43h15.19v-6.27h0Z"/>
        <rect x="324.42" y="18.96" width="15.19" height="21.43"/>
        <path d="M144.72,55.54v-7.32h-15.19v1.2c-.17,2.08-1.31,6.12-7.68,6.12H31.02v-7.32h-15.19v49.65h116.31s12.57-1.57,12.57-15.16v-12.02s.24-4.09-2.86-8.02c2.58-3.64,2.86-7.13,2.86-7.13h0ZM31.02,70.7h91.87c1.64.05,6.63.63,6.63,5.82,0,6.2-4.55,6.2-7.25,6.2H31.02v-12.02Z"/>
        <path d="M275.46,55.54h-89.88v-7.32h-15.19v49.65h15.19v-27.18h86.95l11.54,27.18h15.19l-11.67-27.47c3.56-.81,11.05-3.82,11.63-14.86h.04v-7.32h-15.19s.06,7.32-8.62,7.32h0Z"/>
        <path d="M286.17,19.13v-.17h-115.79v21.43h15.19v-6.27h91.16c2.62,0,7.33.52,7.33,6.27h15.19v-3.66c0-4.87-1.53-16.08-13.1-17.6h.02Z"/>
      </g>
    </g>
  </g>
</svg>